<svg xmlns="http://www.w3.org/2000/svg" width="24" height="24.074" viewBox="0 0 24 24.074">
  <g id="DISPLAY" transform="translate(-2 -2)">
    <g id="Activity" transform="translate(2 2)">
      <path id="Combined-Shape" d="M15,.979a.872.872,0,1,1,0,1.744H6.545c-2.916,0-4.8,2-4.8,5.109v9.4c0,3.145,1.84,5.1,4.8,5.1h10c2.916,0,4.8-2,4.8-5.1V9.046a.872.872,0,0,1,1.744,0v8.185c0,4.093-2.63,6.843-6.546,6.843h-10C2.63,24.074,0,21.324,0,17.231v-9.4C0,3.734,2.63.979,6.545.979Zm2.46,7.942a.871.871,0,0,1,.156,1.223l-3.407,4.4a.872.872,0,0,1-1.228.152L9.7,12.118,6.758,15.942a.872.872,0,1,1-1.383-1.063l3.48-4.523a.872.872,0,0,1,.583-.334.857.857,0,0,1,.648.18l3.279,2.576,2.869-3.7A.868.868,0,0,1,17.457,8.921ZM20.893,0a3.108,3.108,0,1,1-3.107,3.107A3.11,3.11,0,0,1,20.893,0Zm0,1.744a1.363,1.363,0,1,0,1.363,1.363A1.364,1.364,0,0,0,20.893,1.744Z" transform="translate(0 0)" fill="#6b6666" fill-rule="evenodd"/>
    </g>
  </g>
</svg>
