<svg xmlns="http://www.w3.org/2000/svg" width="24" height="22.172" viewBox="0 0 24 22.172">
  <g id="DOWNLOAD" transform="translate(-2 -3)">
    <g id="Download-2" data-name="Download" transform="translate(2 3)">
      <path id="Combined-Shape" d="M6.441,5.679a.9.9,0,1,1,0,1.8H5.311A3.513,3.513,0,0,0,1.8,10.988V16.85a3.525,3.525,0,0,0,3.522,3.522H18.69a3.515,3.515,0,0,0,3.51-3.51V11a3.526,3.526,0,0,0-3.521-3.522H17.561a.9.9,0,1,1,0-1.8h1.118A5.328,5.328,0,0,1,24,11v5.861a5.317,5.317,0,0,1-5.31,5.31H5.322A5.328,5.328,0,0,1,0,16.85V10.988A5.315,5.315,0,0,1,5.311,5.679ZM12,0a.9.9,0,0,1,.9.9V13.171l1.963-1.97a.9.9,0,1,1,1.274,1.271l-3.491,3.5a.907.907,0,0,1-.11.1l.1-.089a.883.883,0,0,1-.125.105.955.955,0,0,1-.083.051l-.043.022a.863.863,0,0,1-.081.034l-.041.014a.854.854,0,0,1-.1.025l-.023,0a.879.879,0,0,1-.089.009H12l-.048,0-.074,0-.016,0,.138.011a.9.9,0,0,1-.159-.014.881.881,0,0,1-.1-.025L11.7,16.2a.843.843,0,0,1-.081-.034l-.048-.024c-.022-.012-.044-.025-.064-.039l-.042-.03a.924.924,0,0,1-.1-.084v0l-3.5-3.512A.9.9,0,1,1,9.139,11.2l1.961,1.97V.9A.9.9,0,0,1,12,0Z" transform="translate(0 0)" fill="#fff" fill-rule="evenodd"/>
    </g>
  </g>
</svg>
