<svg xmlns="http://www.w3.org/2000/svg" width="31.999" height="32" viewBox="0 0 31.999 32">
  <g id="inclinometer" transform="translate(0 0)">
    <path id="Sottrazione_1" data-name="Sottrazione 1" d="M3-2108a15.894,15.894,0,0,1-11.313-4.686A15.9,15.9,0,0,1-13-2124a15.9,15.9,0,0,1,4.686-11.314A15.894,15.894,0,0,1,3-2140a15.9,15.9,0,0,1,11.314,4.687A15.9,15.9,0,0,1,19-2124a15.9,15.9,0,0,1-4.686,11.314A15.9,15.9,0,0,1,3-2108Zm-.746-28.138a1,1,0,0,0-1,1v3.362a1.006,1.006,0,0,0,.108.453l2.83,5.582-4.746,5.613a1,1,0,0,0-.237.646,1,1,0,0,0,.051.315l2.044,6.176a1,1,0,0,0,.949.686,1.006,1.006,0,0,0,.314-.051,1,1,0,0,0,.635-1.263l-1.868-5.645,4.812-5.692a1,1,0,0,0,.128-1.1l-3.021-5.96v-3.124A1,1,0,0,0,2.254-2136.137Z" transform="translate(13 2140)" fill="#fff"/>
  </g>
</svg>
