<svg xmlns="http://www.w3.org/2000/svg" width="32" height="32" viewBox="0 0 32 32">
  <g id="Infrasonico" transform="translate(0)">
    <path id="Sottrazione_4" data-name="Sottrazione 4" d="M-25-1514.281a15.9,15.9,0,0,1-11.314-4.687A15.9,15.9,0,0,1-41-1530.282a15.9,15.9,0,0,1,4.687-11.314A15.9,15.9,0,0,1-25-1546.282a15.9,15.9,0,0,1,11.314,4.686A15.9,15.9,0,0,1-9-1530.282a15.9,15.9,0,0,1-4.686,11.314A15.9,15.9,0,0,1-25-1514.281Zm.832-23.65h.018a5.884,5.884,0,0,1,3.841,1.547c1.288,1.249,1.941,3.19,1.941,5.77,0,3.177-.982,5.478-2.919,6.841a6.611,6.611,0,0,1-2.986,1.141l.111,2a8.455,8.455,0,0,0,3.934-1.438c1.761-1.2,3.861-3.662,3.861-8.541,0-3.158-.867-5.591-2.577-7.231a7.866,7.866,0,0,0-5.2-2.087c-.063,0-.1,0-.114,0l.04,1,.037,1Zm-5.224,13.08h.006l.11,2a6.406,6.406,0,0,0,3.055-1.113c1.36-.929,2.982-2.822,2.982-6.56a7.384,7.384,0,0,0-1.994-5.56,6.133,6.133,0,0,0-4.053-1.622h-.086a.992.992,0,0,0-.695.322.992.992,0,0,0-.263.718,1,1,0,0,0,1,.958h.056a4.1,4.1,0,0,1,2.657,1.066,5.5,5.5,0,0,1,1.379,4.118c0,2.262-.687,3.9-2.042,4.861a4.667,4.667,0,0,1-2.105.815Zm-4.256-2.169.112,2a4.662,4.662,0,0,0,2.2-.8,5.217,5.217,0,0,0,2.123-4.626,5.215,5.215,0,0,0-1.426-3.928,4.319,4.319,0,0,0-2.905-1.169l-.086,0a1,1,0,0,0-.958,1.04,1,1,0,0,0,1,.958h.042a2.392,2.392,0,0,1,1.524.613,3.331,3.331,0,0,1,.809,2.485,3.4,3.4,0,0,1-1.189,2.931A2.765,2.765,0,0,1-33.648-1527.02Z" transform="translate(41 1546.282)" fill="#1d7ff2"/>
  </g>
</svg>
