<svg xmlns="http://www.w3.org/2000/svg" width="32" height="32" viewBox="0 0 32 32">
  <path id="json" d="M16-1244a15.9,15.9,0,0,1-11.314-4.687A15.9,15.9,0,0,1,0-1260a15.9,15.9,0,0,1,4.686-11.314A15.9,15.9,0,0,1,16-1276a15.9,15.9,0,0,1,11.314,4.687A15.9,15.9,0,0,1,32-1260a15.9,15.9,0,0,1-4.687,11.314A15.9,15.9,0,0,1,16-1244Zm2.421-10.029v2.094h1a3.353,3.353,0,0,0,2.429-.8,3.051,3.051,0,0,0,.815-2.274v-3.107a.813.813,0,0,1,.206-.609.762.762,0,0,1,.549-.2h.566v-2.094h-.566a.742.742,0,0,1-.549-.206.814.814,0,0,1-.206-.6v-3.107a3.044,3.044,0,0,0-.815-2.282,3.378,3.378,0,0,0-2.429-.79h-1v2.094h.309a1.256,1.256,0,0,1,.936.326,1.307,1.307,0,0,1,.318.944v2.747a2.7,2.7,0,0,0,.214,1.184,1.282,1.282,0,0,0,.644.617,2.8,2.8,0,0,0,.315.115,2.391,2.391,0,0,0-.315.117,1.321,1.321,0,0,0-.644.626,2.7,2.7,0,0,0-.214,1.184v2.746a1.3,1.3,0,0,1-.318.944,1.252,1.252,0,0,1-.936.326Zm-9.855-4.891a.766.766,0,0,1,.55.2.816.816,0,0,1,.205.609v3.107a3.034,3.034,0,0,0,.824,2.274,3.357,3.357,0,0,0,2.42.8h1v-2.094h-.309a1.255,1.255,0,0,1-.936-.326A1.3,1.3,0,0,1,12-1255.3v-2.746a2.806,2.806,0,0,0-.206-1.184,1.279,1.279,0,0,0-.643-.626,2.513,2.513,0,0,0-.32-.117,2.978,2.978,0,0,0,.32-.115,1.242,1.242,0,0,0,.643-.617,2.807,2.807,0,0,0,.206-1.185v-2.747a1.307,1.307,0,0,1,.317-.944,1.259,1.259,0,0,1,.936-.326h.309V-1268h-1a3.381,3.381,0,0,0-2.42.79,3.026,3.026,0,0,0-.824,2.282v3.107a.817.817,0,0,1-.205.6.746.746,0,0,1-.55.206H8v2.094Zm7.4-1.248a1.228,1.228,0,0,0-1.227,1.227v4.29a1.228,1.228,0,0,0,1.227,1.227,1.228,1.228,0,0,0,1.226-1.227v-4.29A1.228,1.228,0,0,0,15.97-1260.168Zm0-3.677a1.228,1.228,0,0,0-1.227,1.226,1.228,1.228,0,0,0,1.227,1.226,1.227,1.227,0,0,0,1.226-1.226A1.227,1.227,0,0,0,15.97-1263.846Z" transform="translate(0 1276)" fill="#6b6666"/>
</svg>
