<svg xmlns="http://www.w3.org/2000/svg" width="32" height="32" viewBox="0 0 32 32">
  <path id="MAT" d="M-1253-1579.267a15.9,15.9,0,0,1-11.314-4.686,15.894,15.894,0,0,1-4.686-11.313,15.9,15.9,0,0,1,4.686-11.314,15.9,15.9,0,0,1,11.314-4.686,15.9,15.9,0,0,1,11.314,4.686,15.9,15.9,0,0,1,4.687,11.314,15.894,15.894,0,0,1-4.687,11.313A15.9,15.9,0,0,1-1253-1579.267Zm1.641-11.487-.616.021a4.054,4.054,0,0,0,.5,2.614c.571.708,1.609.853,2.992.853s2.421-.145,2.992-.853a4.1,4.1,0,0,0,.5-2.634c0-2.355-.148-3.487-3.487-3.487s-3.488,1.132-3.488,3.487Zm-9.025,0-.616.021a4.054,4.054,0,0,0,.5,2.614c.57.708,1.608.853,2.992.853s2.42-.145,2.992-.853a4.11,4.11,0,0,0,.495-2.634c0-2.355-.148-3.487-3.487-3.487s-3.487,1.132-3.487,3.487Zm9.025-9.025-.616.02a4.055,4.055,0,0,0,.5,2.614c.57.708,1.609.853,2.992.853s2.422-.145,2.992-.853a4.1,4.1,0,0,0,.5-2.633c0-2.355-.148-3.488-3.487-3.488s-3.488,1.132-3.488,3.488Zm-9.025,0-.616.02a4.055,4.055,0,0,0,.5,2.614c.569.708,1.608.853,2.992.853s2.421-.145,2.992-.853a4.108,4.108,0,0,0,.495-2.633c0-2.355-.148-3.488-3.487-3.488s-3.487,1.132-3.487,3.488Zm11.9,11.281c-1.171,0-1.817-.125-2.034-.393a2.839,2.839,0,0,1-.221-1.469v-.7c.006-1.823.154-1.95,2.256-1.95h.169c2.087.01,2.087.224,2.087,2.276a3.708,3.708,0,0,1-.222,1.842C-1246.67-1588.623-1247.316-1588.5-1248.487-1588.5Zm-9.025,0c-1.171,0-1.818-.125-2.034-.393a2.846,2.846,0,0,1-.222-1.469v-.7c.005-1.823.153-1.95,2.256-1.95h.169c2.087.01,2.087.224,2.087,2.276a3.708,3.708,0,0,1-.222,1.842C-1255.7-1588.623-1256.343-1588.5-1257.512-1588.5Zm9.025-9.025c-1.17,0-1.817-.125-2.034-.394a2.838,2.838,0,0,1-.221-1.469v-.7c.006-1.823.154-1.95,2.256-1.95h.169c2.087.01,2.087.224,2.087,2.276a3.7,3.7,0,0,1-.222,1.841C-1246.671-1597.648-1247.317-1597.523-1248.487-1597.523Zm-9.025,0c-1.171,0-1.817-.125-2.034-.394a2.845,2.845,0,0,1-.222-1.469v-.7c.005-1.823.153-1.95,2.256-1.95h.169c2.087.01,2.087.224,2.087,2.276a3.7,3.7,0,0,1-.222,1.841C-1255.7-1597.648-1256.343-1597.523-1257.512-1597.523Z" transform="translate(1269 1611.266)" fill="#fff"/>
</svg>
