<svg xmlns="http://www.w3.org/2000/svg" width="32" height="32" viewBox="0 0 32 32">
  <path id="MSEED" d="M16-1244a15.9,15.9,0,0,1-11.314-4.687A15.9,15.9,0,0,1,0-1260a15.9,15.9,0,0,1,4.686-11.314A15.9,15.9,0,0,1,16-1276a15.9,15.9,0,0,1,11.314,4.687A15.9,15.9,0,0,1,32-1260a15.9,15.9,0,0,1-4.687,11.314A15.9,15.9,0,0,1,16-1244Zm5.154-14.393a2.842,2.842,0,0,0-2.847,2.83,2.842,2.842,0,0,0,2.847,2.83,2.841,2.841,0,0,0,2.846-2.83A2.841,2.841,0,0,0,21.155-1258.393Zm-12.442,2.181a.687.687,0,0,0-.686.686.687.687,0,0,0,.686.686h5.761a.687.687,0,0,0,.686-.686.687.687,0,0,0-.686-.686Zm2.133-11.057A2.842,2.842,0,0,0,8-1264.437a2.841,2.841,0,0,0,2.846,2.83,2.841,2.841,0,0,0,2.847-2.83A2.842,2.842,0,0,0,10.846-1267.268Zm6.2,2.2a.686.686,0,0,0-.686.685.687.687,0,0,0,.686.686H22.8a.687.687,0,0,0,.686-.686.686.686,0,0,0-.686-.685Zm4.111,10.971a1.469,1.469,0,0,1-1.475-1.46,1.469,1.469,0,0,1,1.475-1.459,1.468,1.468,0,0,1,1.474,1.459A1.469,1.469,0,0,1,21.155-1254.1Zm-10.309-8.876a1.468,1.468,0,0,1-1.474-1.459,1.469,1.469,0,0,1,1.474-1.46,1.469,1.469,0,0,1,1.475,1.46A1.469,1.469,0,0,1,10.846-1262.978Z" transform="translate(0 1276)" fill="#6b6666"/>
</svg>
