<svg xmlns="http://www.w3.org/2000/svg" width="32" height="32" viewBox="0 0 32 32">
  <g id="pressure" transform="translate(0 0)">
    <path id="Sottrazione_2" data-name="Sottrazione 2" d="M-20-1901a15.9,15.9,0,0,1-11.314-4.687A15.9,15.9,0,0,1-36-1917a15.9,15.9,0,0,1,4.686-11.314A15.9,15.9,0,0,1-20-1933a15.9,15.9,0,0,1,11.314,4.687A15.9,15.9,0,0,1-4-1917a15.9,15.9,0,0,1-4.687,11.314A15.9,15.9,0,0,1-20-1901Zm-4.154-21.4v0a14.645,14.645,0,0,0-.817,4.176,7.994,7.994,0,0,0,.893,4.181,4.819,4.819,0,0,0,3.524,2.5,2.633,2.633,0,0,0,.4.03,2.5,2.5,0,0,0,2.047-1.085,9.713,9.713,0,0,0,1.113-2.2c.806-1.97,1.505-3.39,3.175-3.734-.08,2.1.406,3.6,1.444,4.469a3.483,3.483,0,0,0,2.249.767,3.714,3.714,0,0,0,1.088-.153l-.594-1.908a2.261,2.261,0,0,1-.518.061,1.464,1.464,0,0,1-.953-.311c-.648-.553-.873-1.93-.634-3.878l.132-1.079-1.086-.042c-.094,0-.188-.005-.281-.005A5.18,5.18,0,0,0-17-1918.891a11.071,11.071,0,0,0-1.846,3.328c-.618,1.51-.912,2.045-1.334,2.045a.525.525,0,0,1-.079-.006,2.824,2.824,0,0,1-2.074-1.5c-1.021-1.813-.823-4.715.544-7.962l.5-1.184-1.271-.192a6.88,6.88,0,0,0-1.024-.078c-2.475,0-4.788,1.411-6.69,4.08a19,19,0,0,0-2.345,4.546,1,1,0,0,0,.635,1.263,1,1,0,0,0,.314.051,1,1,0,0,0,.95-.685c.022-.066,2.267-6.656,6.569-7.216Z" transform="translate(36 1933)" fill="#fff"/>
  </g>
</svg>
