<svg xmlns="http://www.w3.org/2000/svg" width="32" height="32" viewBox="0 0 32 32">
  <g id="sismico" transform="translate(0 0)">
    <path id="Sottrazione_3" data-name="Sottrazione 3" d="M-20-1717.282a15.9,15.9,0,0,1-11.314-4.686A15.9,15.9,0,0,1-36-1733.282a15.9,15.9,0,0,1,4.686-11.314A15.9,15.9,0,0,1-20-1749.282,15.9,15.9,0,0,1-8.686-1744.6,15.9,15.9,0,0,1-4-1733.282a15.9,15.9,0,0,1-4.687,11.314A15.9,15.9,0,0,1-20-1717.282Zm-7.486-19.806h0l.99,16.041a1,1,0,0,0,.954.937h.045a.994.994,0,0,0,.988-.85l2.384-15.755.9,13.189a1,1,0,0,0,.954.932h.045a1.007,1.007,0,0,0,.987-.845l.865-5.5.7,6.973a1,1,0,0,0,.983.9h.013a1,1,0,0,0,.992-.875l1.321-10.511.749,5.567a1,1,0,0,0,.908.863c.027,0,.055,0,.083,0a1,1,0,0,0,.956-.705l1.586-5.152h2.9a1,1,0,0,0,1-1,1,1,0,0,0-1-1h-3.643a.994.994,0,0,0-.955.706l-.464,1.5-1.166-8.673a1,1,0,0,0-.991-.867,1.007,1.007,0,0,0-.993.876l-1.178,9.374-.595-5.908a1,1,0,0,0-.967-.9h-.029a1,1,0,0,0-.987.844l-.688,4.378-.913-13.421a1,1,0,0,0-.957-.932h-.043a1.006,1.006,0,0,0-.987.851l-2.344,15.488L-26-1745.526a1,1,0,0,0-.941-.936l-.059,0a1,1,0,0,0-.983.823l-2.11,11.762h-3.183a1,1,0,0,0-1,1,1,1,0,0,0,1,1h4.02a1,1,0,0,0,.984-.824Z" transform="translate(36 1749.282)" fill="#fff"/>
  </g>
</svg>
